<svg width="180" height="153" viewBox="0 0 180 153" fill="none" xmlns="http://www.w3.org/2000/svg">
<path d="M176.374 152.864H126.982C125.713 152.864 124.568 152.094 124.089 150.906L92.4867 72.4588C92.1953 71.7818 91.5291 71.3027 90.738 71.3027C89.9469 71.3027 89.2703 71.7818 88.9789 72.4588L55.7635 150.958C55.2743 152.114 54.1397 152.864 52.8906 152.864H3.12478C0.886831 152.864 -0.622485 150.583 0.251877 148.521L42.7522 48.3892C43.6265 46.3269 42.1172 44.046 39.8792 44.046H22.5273C21.2574 44.046 20.1124 43.2753 19.6336 42.0879L4.35305 4.29107C3.52033 2.23927 5.04005 0 7.25719 0L96.0258 0.177059C107.184 0.208305 114.721 11.6026 110.37 21.8928L92.9135 63.158L92.9031 63.1788C92.799 63.3663 92.7261 63.5537 92.6637 63.7516C92.6637 63.7516 92.6602 63.7586 92.6533 63.7725C92.5492 64.0953 92.4972 64.439 92.4972 64.7932C92.4972 66.6783 94.2146 68.2093 96.0987 68.2093H136.309C142.669 68.2093 148.404 72.0734 150.778 77.9788L179.267 148.573C180.1 150.625 178.591 152.864 176.374 152.864Z" fill="#3F30F1"/>
</svg>
